<svg width="1080" height="1080" fill="none" xmlns="http://www.w3.org/2000/svg"><path fill="#fff" d="M0 0h1080v1080H0z"/><g clip-path="url(#clip0_9_250)"><path d="M175.28 593.57H82.21c-11.576 0-20.96 9.384-20.96 20.96v93.07c0 11.576 9.384 20.96 20.96 20.96h93.07c11.576 0 20.96-9.384 20.96-20.96v-93.07c0-11.576-9.384-20.96-20.96-20.96z" fill="#FFBB29" stroke="#FFBB29" stroke-width="4.5" stroke-miterlimit="10"/><path d="M147.16 239.43a8.51 8.51 0 100-17.02 8.51 8.51 0 000 17.02zM158.84 222.41a8.51 8.51 0 100-17.02 8.51 8.51 0 000 17.02zM171.53 207.44a8.51 8.51 0 100-17.02 8.51 8.51 0 000 17.02z" fill="#BC7B40" stroke="#1F1F1F" stroke-width="4.5" stroke-linecap="round" stroke-linejoin="round"/><path d="M867.46 382.07s-43.9 32.59-60.52 53.87c-16.62 21.28-23.18 29.14-22.63 34.47.55 2.74 1.65 4.68 3.12 5.66 4 2.66 28.82-6.65 51.87-26.16 23.05-19.51 48.33-46.12 48.78-47.41.45-1.29-20.62-20.43-20.62-20.43z" fill="#1F1F1F" stroke="#1F1F1F" stroke-width="4.5" stroke-linecap="round" stroke-linejoin="round"/><path d="M799.29 246.72c16.29-24.6 42.9-31.26 70.16-27.6 23.75 3.19 44.28 25.27 48.22 52.88 4 27.93-2 54.87-26.6 70.16-23.35 14.51-60.86 14.3-80.48-3-19.62-17.3-34.22-57.82-11.3-92.44z" fill="#B53113" stroke="#1F1F1F" stroke-width="4.5" stroke-linecap="round" stroke-linejoin="round"/><path d="M896.06 405.68c9.88.86 52.87 6.65 67.84 7.65 14.97 1 18.95 3 18.62 8-.33 5-10.64 5.65-25.61 5.32-14.06-.31-47.22-1.33-57.53-4-10.31-2.67-10.97-17.64-3.32-16.97z" fill="#BC7B40" stroke="#1F1F1F" stroke-width="4.5" stroke-linecap="round" stroke-linejoin="round"/><path d="M638.34 110.71c14.3-7.31 38-3.17 48.88 13.64 7.32 11.3 9.31 27.6.67 41.57-12 19.45-35.59 21.61-50.55 14.3-15.85-7.76-19.32-20.62-19.62-33.92-.33-14.63 6.64-28.44 20.62-35.59z" fill="#B53113" stroke="#1F1F1F" stroke-width="4.5" stroke-linecap="round" stroke-linejoin="round"/><path d="M687.89 165.92c15.05-20.31 46.55-30.6 71.49-24.94 24.94 5.66 49.17 28 52.21 64.84 2.33 28.27-16 49.55-33.59 60.19-16.11 9.73-43.23 10.64-61.85 2.33-22.45-10-37.58-29.93-40.57-48.88-2.99-18.95-1.99-34.26 12.31-53.54z" fill="#B53113" stroke="#1F1F1F" stroke-width="4.5" stroke-linecap="round" stroke-linejoin="round"/><path d="M290.39 460.55c-15.45 6.37-42.12 28.37-29.71 79.36 12.41 50.99 91.34 102.87 162.28 129 70.94 26.13 126.68 27.79 204.87-2.19 59-22.61 86.44-61.22 86.44-61.22S481.05 459.22 426.95 453.9c-54.1-5.32-108.63-4.88-136.56 6.65z" fill="#1F1F1F" stroke="#1F1F1F" stroke-width="4.5" stroke-linecap="round" stroke-linejoin="round"/><path d="M843.29 536.81c-33.69-26.16-53.65-35-53.65-35l-27.93 19.79s-126.45 86.33-142.83 97.6c-15.46 10.64-26.93-6.43-28.1-29.76-1.95-38.62 1.4-120.94 5.36-195.94l-.26-.34-99 .06s-143.93 58-154.57 63.35c-10.64 5.35-12.9 13.73-16.48 26.59S224.77 788.21 224.77 788.21c13.74-13.3 42.56-3.55 74 4.88 31.44 8.43 72.72 33.25 79.37 40.35 6.65 7.1 7.54 12.41 7.54 12.41l27.93-276.67 100.22-49.22s11.52 167.16 16.4 198.64c4.88 31.48 20.4 53.21 41.24 56.31 20.84 3.1 54.53-7.09 111.73-47s105.53-81.14 142.33-104.64c36.8-23.5 69.61-34.58 69.61-34.58s-18.15-25.72-51.85-51.88z" fill="#fff" stroke="#1F1F1F" stroke-width="4.5" stroke-linecap="round" stroke-linejoin="round"/><path d="M378.18 833.44c-6.65-7.1-47.89-31.93-79.37-40.35-31.48-8.42-60.3-18.18-74-4.88-9.14 13.91 13.74 39 37.69 51 23.95 12 74.93 27.49 96.65 24.39 21.72-3.1 27.49-7.54 26.61-17.74-.04-.01-.93-5.36-7.58-12.42z" fill="#1F1F1F" stroke="#1F1F1F" stroke-width="4.5" stroke-linecap="round" stroke-linejoin="round"/><path d="M857.48 473.85s-10.2 16.4-29.71 33.7c-4.41 3.91-8.21 7.15-11.44 9.82 7.57 5 16.62 11.41 27 19.44a302.848 302.848 0 0131.69 28.39c7.61-6.45 16.83-14.21 26.4-22.18 23.94-19.95 53.2-23.95 77.15-29.27 23.95-5.32 39.9-12.41 40.79-24.38l-161.88-15.52z" fill="#fff" stroke="#1F1F1F" stroke-width="4.5" stroke-linecap="round" stroke-linejoin="round"/><path d="M555.53 156.83c-4.73 8.15-8 19.06-9.31 31.92-1.31 12.86.89 16 8 17.74a27.397 27.397 0 0013.75-.45l-12 33.26-4.87 22.2s7.1 5.76 23.5 6.65c16.4.89 29.71-7.1 29.71-7.1l1.11-20.61a111.083 111.083 0 01-7.32-26.39c-1.77-11.52 19.47-26.16 21.28-44.34 2.66-26.6-17.12-32.05-26.16-32.36-12.86-.48-29.7 5.73-37.69 19.48z" fill="#BC7B40" stroke="#1F1F1F" stroke-width="4.5" stroke-linecap="round" stroke-linejoin="round"/><path d="M574.6 268.12c-15.81-.86-23-6.23-23.45-6.62-6.25 28.41-17.89 80.12-30.76 131.65h75.49l8.43-132.13s-13.3 7.98-29.71 7.1z" fill="#1F1F1F" stroke="#1F1F1F" stroke-width="4.5" stroke-linecap="round" stroke-linejoin="round"/><path d="M513.86 519.96l-1.89-21.5" stroke="#1F1F1F" stroke-width="4.5" stroke-linecap="round" stroke-linejoin="round"/><path d="M593.22 137.32c-12.86-.45-29.7 5.76-37.69 19.51-.72 1.24-1.4 2.56-2.06 3.93 7.56 5.57 18.59 5.82 23.68 5.82 6 0 11.29-.36 18-3.32 6-2.66 11.9 1.2 10.31 7-2.66 9.64-10.65 10.31-13.31 18-2.66 7.69-.66 13.63 6 25.82-1.77-11.52 19.47-26.16 21.28-44.34 2.61-26.66-17.17-32.11-26.21-32.42z" fill="#B53113" stroke="#1F1F1F" stroke-width="4.5" stroke-linecap="round" stroke-linejoin="round"/><path d="M867.46 382.07a15.436 15.436 0 0012.3 5c8.32-.34 41.24-.67 47.56-1 6.32-.33 9 7 1.33 9.64-8.89 3.09-16.63 5-26.61 7.65-2.59.69-1.17 3.08 3.66 4.66 17.29 5.65 57.53 14.3 63.85 16.29 6.32 1.99 4.32 9.31-8 9-12.32-.31-58.53-4.32-83.47-11-24.94-6.68-45.23-12-45.23-12 14.32-12.95 34.61-28.24 34.61-28.24z" fill="#BC7B40" stroke="#1F1F1F" stroke-width="4.5" stroke-linecap="round" stroke-linejoin="round"/><path d="M189.83 220.81c3.51 6.07 3.35 25.12 9.6 40.13 6.25 15.01 17.85 20.78 17.85 20.78" stroke="#1F1F1F" stroke-width="4.5" stroke-linecap="round" stroke-linejoin="round"/><path d="M298.83 793.09c-4.93-1.32-9.79-2.67-14.54-4-6.23 16.56-25.53 48.57-41.32 61.6-17.74 14.63-51.44 27.93-84.25 30.59s-55.89 12.9-57.66 20.44c-1.77 7.54 2.22 11.08 13.3 16.4 11.08 5.32 139.67 35 161.84 38.14 22.17 3.14 38.13 5.76 42.57-9.32 4.44-15.08 13.3-68.28 20.83-90.45 4.76-14 11.11-29.4 15.15-38.86-16.17-9.26-37.69-19.66-55.92-24.54z" fill="#fff" stroke="#1F1F1F" stroke-width="4.5" stroke-linecap="round" stroke-linejoin="round"/><path d="M312.56 937.63c-8.43-5.76-75.82-22.61-116.17-28.82-36.91-5.68-86.81-11.35-95.71-3.79.07 5.4 4.36 8.63 13.68 13.1 11.09 5.32 139.67 35 161.84 38.14 17.94 2.51 31.81 4.72 38.8-2.51 5.01-6.15 4.06-11.67-2.44-16.12z" fill="#fff" stroke="#1F1F1F" stroke-width="4.5" stroke-linecap="round" stroke-linejoin="round"/><path d="M605.42 240.41s14.63-8 27.26-11.31c12.63-3.31 25.94-4 41.24 7.31 15.3 11.31 193.54 145.66 193.54 145.66s-43.9 32.59-60.52 53.87c-16.62 21.28-23.28 29.26-22.62 34.56l-112.4-149.62c-.36 18.53 4.8 58.29 12.51 95.52 6.4 30.92 14.55 60.09 22.74 73.91 20.12 33.92 38.74 33.75 54.54 31.26 0 0-126.45 86.33-142.83 97.6-15.46 10.64-27.78-6.43-28.95-29.76-3.99-80.15 15.49-349 15.49-349zM555.98 239.3s-45.23 212.38-73.15 282.88c-27.92 70.5-39.91 82-48.33 81.14-8.42-.86-31.48-22.61-51-55.43s-40.35-67.83-59-78.92c-18.65-11.09-34.14-8.42-34.14-8.42l193.32-83.8s-8-23.5-8.87-44.79c0 0-41.24 34.15-77.15 53.65-27.93 15.18-59.42 16-98.43 7.54-39.01-8.46-98-39-98-39 10.2 0 28.45-14.11 39-43.23 8.79-24.27 18.2-52.79 18.2-52.79l117.06 69.86s78.92-70.94 100.2-88.67c21.28-17.73 46.56-17.3 59.42-11.53a128.663 128.663 0 0120.87 11.51z" fill="#C2E7FF" stroke="#C2E7FF" stroke-width="4.5" stroke-linecap="round" stroke-linejoin="round"/><path d="M474.83 331.96c-1.78-20.83 0-43.89 0-43.89M671.92 320.88c-.66-10.2-.77-21.94-.77-21.94M438.83 972.33c7-75.82 73.83-146.65 137.67-146.65 63.84 0 102.74 63.82 109.72 110.73 27.94-102.75 118.72-227.45 255.39-275.34M258.46 258.11l117.06 69.86s78.92-70.94 100.2-88.67c21.28-17.73 46.56-17.3 59.42-11.53M632.68 229.1c12.64-3.33 25.94-4 41.24 7.31 15.3 11.31 193.54 145.66 193.54 145.66M761.71 521.57s-126.45 86.33-142.83 97.6M671.92 320.88c-.36 18.53 4.8 58.29 12.51 95.52M867.46 382.07s-43.9 32.59-60.52 53.87c-16.62 21.28-23.28 29.26-22.62 34.56" stroke="#1F1F1F" stroke-width="4.5" stroke-linecap="round" stroke-linejoin="round"/><path d="M452.03 309.32a161.639 161.639 0 10-182.2 160.35l151.78-65.94a160.942 160.942 0 0030.42-94.41z" fill="#C4EED0" stroke="#C4EED0" stroke-width="4.5" stroke-miterlimit="10"/><path d="M395.52 260.66l-33.5-33.5-99.2 99.19-43.52-43.52-33.51 33.51 76.89 76.88.14-.14.14.14 132.56-132.56z" fill="#fff" stroke="#1F1F1F" stroke-width="4.5" stroke-linecap="round" stroke-linejoin="round"/><path d="M290.39 147.68a161.642 161.642 0 00-161.64 161.64M290.39 460.55l193.32-83.8s-8-23.5-8.87-44.79" stroke="#1F1F1F" stroke-width="4.5" stroke-linecap="round" stroke-linejoin="round"/><path d="M290.39 460.55c-15.45 6.37-42.12 28.37-29.71 79.36l29.71-79.36z" fill="#1F1F1F"/><path d="M290.39 460.55c-15.45 6.37-42.12 28.37-29.71 79.36" stroke="#1F1F1F" stroke-width="4.5" stroke-linecap="round" stroke-linejoin="round"/></g><defs><clipPath id="clip0_9_250"><path fill="#fff" transform="translate(59 105)" d="M0 0h962.57v869.58H0z"/></clipPath></defs></svg>