<svg width="200" height="200" viewBox="0 0 200 200" fill="none" xmlns="http://www.w3.org/2000/svg">
<path d="M125.03 69.3057C134.132 69.3057 141.511 61.9267 141.511 52.8243C141.511 43.7218 134.132 36.3428 125.03 36.3428C115.927 36.3428 108.548 43.7218 108.548 52.8243C108.548 61.9267 115.927 69.3057 125.03 69.3057Z" fill="#FFBB29"/>
<path d="M185.306 134.086C188.752 145.567 169.719 150.33 161.185 151.308C152.652 152.286 158.222 124.069 158.222 124.069L182.098 122.347L185.306 134.086Z" fill="#1F1F1F" stroke="#1F1F1F" stroke-linecap="round" stroke-linejoin="round"/>
<path d="M156.15 69.3057H91.0076C82.9064 69.3057 76.3391 75.873 76.3391 83.9742V149.117C76.3391 157.218 82.9064 163.785 91.0076 163.785H156.15C164.251 163.785 170.819 157.218 170.819 149.117V83.9742C170.819 75.873 164.251 69.3057 156.15 69.3057Z" fill="#C2E7FF" stroke="#C2E7FF" stroke-linecap="round" stroke-linejoin="round"/>
<path d="M156.15 69.3057C168.98 69.3057 171.933 82.889 171.933 82.889C171.933 82.889 182.435 124.322 185.306 134.085C183.665 131.33 181.046 130.278 177.513 130.278C170.046 130.278 141.822 145.491 125.906 145.491C124.183 145.491 121.23 144.833 121.23 141.787C121.23 136.602 131.074 130.476 131.074 125.306C131.074 111.276 96.8631 133.182 76.3391 133.182V83.9742C76.3391 72.552 86.6298 69.3057 91.0076 69.3057H156.15Z" fill="white" stroke="#1F1F1F" stroke-linecap="round" stroke-linejoin="round"/>
<path d="M121.23 141.794V121.165C121.23 121.165 131.074 118.016 131.074 125.315C131.074 130.639 121.23 136.3 121.23 141.794Z" fill="#1F1F1F" stroke="#1F1F1F" stroke-linecap="round" stroke-linejoin="round"/>
<path d="M131.076 125.306V80.4277" stroke="#1F1F1F" stroke-linecap="round" stroke-linejoin="round"/>
<path d="M17.9355 150.001C14.7355 160.34 32.9503 152.964 32.9503 152.964L34.591 135.742L22.2911 140.844L17.9355 150.001Z" fill="#1F1F1F" stroke="#1F1F1F" stroke-linecap="round" stroke-linejoin="round"/>
<path d="M94.5725 146.885C96.5336 152.709 82.9058 155.511 82.9058 155.511L78.2299 137.285H89.8965L94.5725 146.885Z" fill="#1F1F1F" stroke="#1F1F1F" stroke-linecap="round" stroke-linejoin="round"/>
<path d="M45.3687 98.565L23.5169 145.506C18.8169 155.596 28.5057 166.398 39.0465 162.819L51.8483 157.078C54.4847 156.182 57.3434 156.182 59.9798 157.078L73.5724 163.084C83.9928 166.622 93.6465 156.082 89.2094 146.011L68.4113 98.802C64.0205 88.8576 49.9576 88.7094 45.3687 98.565Z" fill="#C4EED0" stroke="#1F1F1F" stroke-linecap="round" stroke-linejoin="round"/>
<path d="M15.3428 163.785H183.356" stroke="#1F1F1F" stroke-linecap="round" stroke-linejoin="round"/>
<path d="M17.9353 150.002C22.7501 141.967 56.3001 132.282 56.3001 139.01C56.3001 142.782 48.2908 144.665 48.2908 146.886C48.2908 151.145 88.4946 136.547 94.5723 146.886C94.5723 146.886 73.8316 103.967 71.1001 100.119C68.3686 96.2708 64.402 91.2578 56.989 91.2578C49.576 91.2578 44.6816 95.5171 38.2853 107.997C31.889 120.476 17.9353 150.002 17.9353 150.002Z" fill="white" stroke="#1F1F1F" stroke-linecap="round" stroke-linejoin="round"/>
<path d="M48.291 146.885L49.7724 136.822C49.7724 136.822 56.3002 135.896 56.3021 139.009C56.3021 142.865 48.6206 144.587 48.291 146.885Z" fill="#1F1F1F" stroke="#1F1F1F" stroke-linecap="round" stroke-linejoin="round"/>
<path d="M56.3002 139.008V105.698" stroke="#1F1F1F" stroke-linecap="round" stroke-linejoin="round"/>
<path d="M125.028 36.3428C129.399 36.3428 133.591 38.0792 136.682 41.1701C139.773 44.2609 141.509 48.4531 141.509 52.8243" stroke="#1F1F1F" stroke-linecap="round" stroke-linejoin="round"/>
</svg>
